<svg width="574" height="186" viewBox="0 0 574 186" fill="none" xmlns="http://www.w3.org/2000/svg">
<path d="M12.3738 185.399C4.12459 185.399 0 180.187 0 169.765C0 166.825 0.883842 157.539 2.65153 141.905C4.51741 126.272 5.74497 116.05 6.3342 111.239C9.67316 84.2479 11.3426 69.3491 11.3426 66.5431C11.3426 60.931 9.37854 58.125 5.45036 58.125C4.95933 58.125 3.92819 58.2586 2.35691 58.5259L1.91499 50.709C5.45036 48.7047 10.0169 47.0345 15.6145 45.6983C21.3104 44.3621 26.3188 43.6272 30.6398 43.4935L32.9968 45.2974L32.5548 58.5259C38.0543 48.5043 45.567 43.4935 55.0928 43.4935C62.3599 43.4935 67.9085 46.5668 71.7385 52.7134C75.6667 58.8599 77.6308 67.8125 77.6308 79.5711C77.6308 92.7996 76.0595 104.224 72.917 113.845C69.7744 123.466 65.2079 130.815 59.2174 135.892C53.3251 140.97 46.3035 143.509 38.1525 143.509C35.1082 143.509 32.5057 143.108 30.3452 142.306C28.1847 141.504 26.0733 140.302 24.011 138.698C23.52 143.108 22.8817 148.519 22.096 154.933C21.4086 161.481 21.0649 165.289 21.0649 166.358C21.0649 167.694 21.3595 168.696 21.9487 169.364C22.538 170.166 23.3236 170.567 24.3056 170.567C25.9751 170.567 28.2338 169.498 31.0818 167.36L32.9968 174.575C31.0327 177.248 27.9392 179.72 23.7164 181.991C19.4936 184.263 15.7127 185.399 12.3738 185.399ZM34.3225 132.886C41.8843 132.886 47.4328 127.474 50.9682 116.651C54.5036 105.828 56.2713 92.7996 56.2713 77.5668C56.2713 62.8685 53.2269 55.5194 47.1382 55.5194C43.1118 55.5194 39.5765 58.0582 36.5321 63.1358C33.4878 68.2134 31.3764 75.5625 30.1979 85.1832L25.0422 128.877C26.0242 129.946 27.35 130.881 29.0195 131.683C30.689 132.485 32.4566 132.886 34.3225 132.886Z" fill="#103854"/>
<path d="M117.583 143.509C107.665 143.509 100.054 140.168 94.7506 133.487C89.5458 126.806 86.9433 116.851 86.9433 103.623C86.9433 91.9978 88.5637 81.6422 91.8045 72.556C95.0452 63.4698 99.759 56.3879 105.946 51.3103C112.231 46.0991 119.744 43.4935 128.484 43.4935C138.403 43.4935 145.964 46.9009 151.169 53.7155C156.472 60.5302 159.124 70.4849 159.124 83.5797C159.124 95.3384 157.503 105.761 154.263 114.847C151.12 123.8 146.406 130.815 140.121 135.892C133.934 140.97 126.422 143.509 117.583 143.509ZM118.762 132.284C125.341 132.284 130.153 126.539 133.198 115.047C136.34 103.422 137.912 90.3944 137.912 75.9634C137.912 68.6142 137.028 63.2694 135.26 59.9289C133.591 56.4547 130.939 54.7177 127.305 54.7177C122.886 54.7177 119.204 57.6573 116.257 63.5366C113.409 69.2823 111.347 76.4978 110.071 85.1832C108.794 93.7349 108.156 102.487 108.156 111.44C108.156 118.655 108.99 123.933 110.66 127.274C112.427 130.614 115.128 132.284 118.762 132.284Z" fill="#103854"/>
<path d="M171.897 116.45C172.29 112.843 173.321 104.091 174.99 90.194C176.66 76.1638 177.495 68.0129 177.495 65.7414C177.495 63.2026 176.954 61.3319 175.874 60.1293C174.892 58.7931 173.468 58.125 171.602 58.125C171.111 58.125 170.08 58.2586 168.509 58.5259L168.067 50.709C176.512 45.8987 186.087 43.4935 196.792 43.4935L200.916 46.7004L197.97 71.5539C200.916 63.2694 204.403 56.6552 208.429 51.7112C212.455 46.6336 217.071 44.0948 222.276 44.0948C225.909 44.0948 228.806 45.3642 230.967 47.903C233.127 50.4418 234.208 54.0496 234.208 58.7263C234.208 64.0711 233.029 68.5474 230.672 72.1552C228.414 75.7629 225.959 77.5668 223.307 77.5668C221.834 77.5668 220.361 77.0991 218.888 76.1638C217.513 75.0948 216.433 73.8922 215.647 72.556C216.04 72.0216 216.384 71.2198 216.678 70.1509C216.973 69.0819 217.12 68.0797 217.12 67.1444C217.12 65.5409 216.776 64.2716 216.089 63.3362C215.402 62.2672 214.419 61.7328 213.143 61.7328C211.081 61.7328 208.675 64.0043 205.925 68.5474C203.175 73.0905 200.671 78.7694 198.412 85.5841C196.153 92.2651 194.68 98.6789 193.993 104.825L189.574 142.106H168.803L171.897 116.45Z" fill="#103854"/>
<path d="M252.643 142.907C247.536 142.907 243.657 141.304 241.006 138.097C238.452 134.89 237.176 130.347 237.176 124.468C237.176 121.662 239.091 103.89 242.921 71.153L244.394 59.3276H233.935L234.966 50.5086C239.975 48.1034 244.639 44.6961 248.96 40.2866C253.379 35.8772 257.013 30.7996 259.861 25.0539H269.436L267.079 46.2996H285.934L284.314 59.3276H265.311L263.986 70.1509C263.396 75.3621 262.316 84.7823 260.745 98.4116C259.174 111.907 258.388 119.457 258.388 121.06C258.388 125.737 260.205 128.075 263.838 128.075C265.41 128.075 267.423 127.341 269.878 125.871C272.431 124.401 274.69 122.797 276.654 121.06L280.189 127.675C276.949 131.817 272.726 135.425 267.521 138.498C262.316 141.437 257.357 142.907 252.643 142.907Z" fill="#103854"/>
<path d="M273.966 186C268.466 186 264.145 184.463 261.003 181.39C257.86 178.317 256.289 174.108 256.289 168.763C256.289 164.487 257.271 161.013 259.235 158.341C261.199 155.668 263.605 154.332 266.453 154.332C268.417 154.332 270.136 155.067 271.609 156.537C273.082 158.006 274.015 160.078 274.408 162.75C273.426 163.418 272.64 164.353 272.051 165.556C271.461 166.892 271.167 168.362 271.167 169.966C271.167 171.97 271.658 173.506 272.64 174.575C273.524 175.778 274.751 176.379 276.323 176.379C280.545 176.379 283.393 172.103 284.866 163.552C285.456 159.81 286.045 153.397 286.634 144.31C287.027 136.828 287.42 131.416 287.812 128.075L295.62 58.9267H283.982L285.161 50.709C289.58 49.7737 293.557 48.3039 297.093 46.2996L298.124 37.4806C299.008 30.3987 300.874 24.0517 303.722 18.4397C306.57 12.694 310.203 8.21768 314.622 5.01078C319.14 1.67026 324.148 0 329.648 0C335.049 0 339.419 1.60345 342.758 4.81034C346.195 7.88362 347.914 11.8922 347.914 16.8362C347.914 21.6466 346.834 25.4547 344.673 28.2608C342.513 30.9332 339.959 32.2694 337.013 32.2694C334.951 32.2694 333.183 31.5345 331.71 30.0647C330.237 28.4612 329.451 26.3233 329.353 23.6509C332.005 20.8448 333.33 17.7047 333.33 14.2306C333.33 9.95475 331.514 7.81682 327.88 7.81682C324.836 7.81682 322.282 9.6207 320.22 13.2285C318.256 16.7026 317.274 21.3793 317.274 27.2586C317.274 28.9957 317.323 30.5323 317.421 31.8685C317.519 33.0711 317.618 34.1401 317.716 35.0754C318.01 37.4806 318.158 39.6853 318.158 41.6897C318.158 42.625 318.06 44.1616 317.863 46.2996H333.183L331.71 58.9267H316.39L308.141 130.28C306.962 140.703 305.391 149.722 303.427 157.338C301.463 165.088 298.124 171.769 293.41 177.381C288.696 183.127 282.215 186 273.966 186Z" fill="#103854"/>
<path d="M364.581 143.509C354.663 143.509 347.052 140.168 341.749 133.487C336.544 126.806 333.941 116.851 333.941 103.623C333.941 91.9978 335.562 81.6422 338.803 72.556C342.043 63.4698 346.757 56.3879 352.944 51.3103C359.229 46.0991 366.742 43.4935 375.482 43.4935C385.401 43.4935 392.962 46.9009 398.167 53.7155C403.47 60.5302 406.122 70.4849 406.122 83.5797C406.122 95.3384 404.501 105.761 401.261 114.847C398.118 123.8 393.404 130.815 387.119 135.892C380.932 140.97 373.42 143.509 364.581 143.509ZM365.76 132.284C372.339 132.284 377.151 126.539 380.196 115.047C383.338 103.422 384.91 90.3944 384.91 75.9634C384.91 68.6142 384.026 63.2694 382.258 59.9289C380.589 56.4547 377.937 54.7177 374.304 54.7177C369.884 54.7177 366.202 57.6573 363.255 63.5366C360.408 69.2823 358.345 76.4978 357.069 85.1832C355.792 93.7349 355.154 102.487 355.154 111.44C355.154 118.655 355.988 123.933 357.658 127.274C359.426 130.614 362.126 132.284 365.76 132.284Z" fill="#103854"/>
<path d="M429.796 143.308C425.573 143.308 422.479 141.905 420.515 139.099C418.551 136.293 417.569 131.884 417.569 125.871C417.569 121.461 419.533 103.489 423.461 71.9547C423.854 68.4806 424.787 60.5302 426.26 48.1035C427.733 35.6767 428.47 28.2608 428.47 25.8556C428.47 20.1099 426.506 17.2371 422.578 17.2371C421.89 17.2371 420.859 17.3707 419.484 17.6379L419.042 9.82113C422.283 8.08405 426.702 6.54742 432.3 5.21121C437.898 3.74139 443.053 2.87285 447.767 2.60561L451.744 5.41164L446.294 52.9138C440.991 98.4785 438.339 121.996 438.339 123.466C438.339 126.806 439.469 128.476 441.728 128.476C443.495 128.476 445.754 127.407 448.504 125.269L450.419 132.485C448.356 135.291 445.214 137.83 440.991 140.101C436.768 142.239 433.036 143.308 429.796 143.308Z" fill="#103854"/>
<path d="M473.401 143.308C468.982 143.308 465.839 141.838 463.973 138.899C462.107 135.959 461.174 131.616 461.174 125.871C461.174 121.996 462.402 110.037 464.857 89.9935C466.527 76.097 467.361 68.347 467.361 66.7435C467.361 60.9978 465.397 58.125 461.469 58.125C460.978 58.125 459.947 58.2586 458.376 58.5259L457.934 50.709C461.469 48.7047 466.035 47.0345 471.633 45.6983C477.329 44.3621 482.337 43.6272 486.658 43.4935L490.636 46.2996L488.721 63.1358C484.203 101.084 481.945 121.261 481.945 123.666C481.945 126.873 483.074 128.476 485.333 128.476C487.002 128.476 489.261 127.407 492.109 125.269L494.024 132.485C492.06 135.157 488.966 137.629 484.743 139.901C480.521 142.172 476.74 143.308 473.401 143.308ZM481.797 29.8642C478.949 29.8642 476.642 28.8621 474.874 26.8578C473.106 24.8534 472.222 21.9806 472.222 18.2392C472.222 13.2953 473.303 9.35345 475.463 6.41379C477.722 3.34052 480.717 1.80388 484.449 1.80388C487.395 1.80388 489.703 2.87285 491.372 5.01078C493.14 7.01509 494.024 9.82112 494.024 13.4289C494.024 18.3728 492.894 22.3815 490.636 25.4547C488.475 28.3944 485.529 29.8642 481.797 29.8642Z" fill="#103854"/>
<path d="M532.459 143.509C522.541 143.509 514.93 140.168 509.627 133.487C504.422 126.806 501.82 116.851 501.82 103.623C501.82 91.9978 503.44 81.6422 506.681 72.556C509.921 63.4698 514.635 56.3879 520.822 51.3103C527.107 46.0991 534.62 43.4935 543.36 43.4935C553.279 43.4935 560.841 46.9009 566.045 53.7155C571.348 60.5302 574 70.4849 574 83.5797C574 95.3384 572.38 105.761 569.139 114.847C565.996 123.8 561.282 130.815 554.997 135.892C548.81 140.97 541.298 143.509 532.459 143.509ZM533.638 132.284C540.218 132.284 545.03 126.539 548.074 115.047C551.217 103.422 552.788 90.3944 552.788 75.9634C552.788 68.6142 551.904 63.2694 550.136 59.9289C548.467 56.4547 545.815 54.7177 542.182 54.7177C537.762 54.7177 534.08 57.6573 531.134 63.5366C528.286 69.2823 526.223 76.4978 524.947 85.1832C523.67 93.7349 523.032 102.487 523.032 111.44C523.032 118.655 523.867 123.933 525.536 127.274C527.304 130.614 530.004 132.284 533.638 132.284Z" fill="#103854"/>
</svg>
