<svg width="489" height="145" viewBox="0 0 489 145" fill="none" xmlns="http://www.w3.org/2000/svg">
<g filter="url(#filter0_d_16_4)">
<path d="M20.1103 130.596C13.3701 130.596 10 127.094 10 120.089C10 118.114 10.7222 111.873 12.1665 101.366C13.6911 90.8599 14.6941 83.9903 15.1755 80.7575C17.9037 62.6182 19.2678 52.6056 19.2678 50.7198C19.2678 46.9483 17.663 45.0625 14.4533 45.0625C14.0521 45.0625 13.2096 45.1523 11.9258 45.3319L11.5647 40.0787C14.4533 38.7317 18.1845 37.6092 22.7582 36.7112C27.4122 35.8132 31.5044 35.3193 35.035 35.2295L36.9608 36.4418L36.5997 45.3319C41.0931 38.597 47.2315 35.2295 55.0149 35.2295C60.9526 35.2295 65.4862 37.2949 68.6156 41.4256C71.8252 45.5564 73.43 51.5729 73.43 59.4752C73.43 68.3653 72.1462 76.0431 69.5785 82.5086C67.0108 88.9741 63.2796 93.9131 58.3849 97.3254C53.5705 100.738 47.8333 102.444 41.1734 102.444C38.6859 102.444 36.5596 102.175 34.7943 101.636C33.029 101.097 31.3038 100.289 29.6188 99.2112C29.2176 102.175 28.696 105.811 28.0541 110.122C27.4924 114.522 27.2116 117.081 27.2116 117.8C27.2116 118.698 27.4523 119.371 27.9337 119.82C28.4152 120.359 29.0571 120.628 29.8595 120.628C31.2236 120.628 33.0691 119.91 35.3961 118.473L36.9608 123.322C35.356 125.118 32.8284 126.779 29.3781 128.306C25.9277 129.833 22.8385 130.596 20.1103 130.596ZM38.044 95.305C44.2225 95.305 48.7561 91.6681 51.6448 84.3944C54.5334 77.1207 55.9777 68.3653 55.9777 58.1282C55.9777 48.2504 53.4903 43.3114 48.5154 43.3114C45.2255 43.3114 42.3369 45.0176 39.8494 48.43C37.362 51.8423 35.6368 56.7813 34.6739 63.2468L30.4613 92.611C31.2637 93.3294 32.3469 93.958 33.711 94.4968C35.0751 95.0356 36.5194 95.305 38.044 95.305Z" fill="#A4D048"/>
<path d="M106.074 102.444C97.9698 102.444 91.7512 100.199 87.4182 95.7091C83.1654 91.2191 81.0391 84.5291 81.0391 75.639C81.0391 67.8265 82.363 60.8671 85.011 54.7608C87.6589 48.6545 91.5104 43.8951 96.5656 40.4828C101.701 36.9806 107.839 35.2295 114.981 35.2295C123.085 35.2295 129.264 37.5194 133.516 42.0991C137.849 46.6789 140.016 53.3689 140.016 62.1692C140.016 70.0715 138.692 77.0758 136.044 83.1821C133.476 89.1986 129.625 93.9131 124.489 97.3254C119.434 100.738 113.296 102.444 106.074 102.444ZM107.037 94.9009C112.413 94.9009 116.345 91.0395 118.832 83.3168C121.4 75.5043 122.684 66.7489 122.684 57.0506C122.684 52.1117 121.962 48.5198 120.517 46.2748C119.153 43.94 116.987 42.7726 114.018 42.7726C110.407 42.7726 107.398 44.7482 104.991 48.6994C102.664 52.5607 100.979 57.4098 99.9357 63.2468C98.8925 68.9939 98.371 74.8757 98.371 80.8922C98.371 85.7414 99.053 89.2884 100.417 91.5334C101.861 93.7784 104.068 94.9009 107.037 94.9009Z" fill="#A4D048"/>
<path d="M150.452 84.2597C150.773 81.8351 151.616 75.9533 152.98 66.6142C154.344 57.1853 155.026 51.7076 155.026 50.181C155.026 48.4749 154.585 47.2177 153.702 46.4095C152.9 45.5115 151.736 45.0625 150.212 45.0625C149.81 45.0625 148.968 45.1523 147.684 45.3319L147.323 40.0787C154.224 36.8459 162.047 35.2295 170.793 35.2295L174.163 37.3847L171.756 54.0873C174.163 48.5198 177.012 44.0747 180.302 40.7522C183.592 37.3398 187.363 35.6336 191.616 35.6336C194.585 35.6336 196.952 36.4867 198.717 38.1929C200.482 39.8991 201.365 42.3236 201.365 45.4666C201.365 49.0586 200.402 52.0668 198.476 54.4914C196.631 56.9159 194.625 58.1282 192.458 58.1282C191.255 58.1282 190.051 57.8139 188.847 57.1853C187.724 56.467 186.841 55.6588 186.199 54.7608C186.52 54.4016 186.801 53.8628 187.042 53.1444C187.283 52.426 187.403 51.7525 187.403 51.1239C187.403 50.0463 187.122 49.1932 186.56 48.5647C185.999 47.8463 185.196 47.4871 184.153 47.4871C182.468 47.4871 180.502 49.0137 178.256 52.0668C176.009 55.12 173.963 58.9364 172.117 63.5162C170.272 68.0061 169.068 72.3165 168.506 76.4472L164.896 101.501H147.925L150.452 84.2597Z" fill="#A4D048"/>
<path d="M216.428 102.04C212.255 102.04 209.086 100.962 206.919 98.8071C204.833 96.6519 203.79 93.5988 203.79 89.6476C203.79 87.7619 205.355 75.8186 208.484 53.8179L209.688 45.8707H201.142L201.985 39.944C206.077 38.3276 209.888 36.0377 213.419 33.0744C217.03 30.111 219.998 26.6986 222.325 22.8373H230.149L228.223 37.1153H243.629L242.305 45.8707H226.779L225.696 53.1444C225.214 56.6466 224.331 62.9774 223.048 72.1369C221.764 81.2065 221.122 86.2802 221.122 87.3578C221.122 90.5007 222.606 92.0722 225.575 92.0722C226.859 92.0722 228.504 91.5783 230.51 90.5905C232.596 89.6027 234.442 88.5251 236.047 87.3578L238.935 91.8028C236.287 94.5866 232.837 97.0111 228.584 99.0765C224.331 101.052 220.279 102.04 216.428 102.04Z" fill="#A4D048"/>
<path d="M233.85 131C229.357 131 225.826 129.967 223.258 127.902C220.691 125.837 219.407 123.008 219.407 119.416C219.407 116.542 220.209 114.208 221.814 112.412C223.419 110.616 225.385 109.718 227.712 109.718C229.316 109.718 230.721 110.212 231.924 111.199C233.128 112.187 233.89 113.579 234.211 115.375C233.409 115.824 232.767 116.453 232.285 117.261C231.804 118.159 231.563 119.147 231.563 120.224C231.563 121.571 231.964 122.604 232.767 123.322C233.489 124.13 234.492 124.534 235.776 124.534C239.226 124.534 241.553 121.661 242.757 115.914C243.238 113.399 243.72 109.089 244.201 102.983C244.522 97.954 244.843 94.3172 245.164 92.0722L251.543 45.6013H242.034L242.997 40.0787C246.608 39.4501 249.858 38.4623 252.747 37.1153L253.589 31.1886C254.311 26.4292 255.836 22.1638 258.163 18.3922C260.49 14.5309 263.459 11.5226 267.07 9.36746C270.761 7.12249 274.853 6 279.346 6C283.759 6 287.33 7.07759 290.058 9.23276C292.867 11.2981 294.271 13.9921 294.271 17.3147C294.271 20.5474 293.388 23.1067 291.623 24.9925C289.858 26.7884 287.772 27.6864 285.364 27.6864C283.679 27.6864 282.235 27.1925 281.031 26.2047C279.828 25.1272 279.186 23.6904 279.106 21.8944C281.272 20.0086 282.355 17.8983 282.355 15.5636C282.355 12.69 280.871 11.2532 277.902 11.2532C275.414 11.2532 273.328 12.4655 271.643 14.8901C270.038 17.2249 269.236 20.3678 269.236 24.319C269.236 25.4864 269.276 26.519 269.356 27.417C269.437 28.2252 269.517 28.9436 269.597 29.5722C269.838 31.1886 269.958 32.6703 269.958 34.0172C269.958 34.6458 269.878 35.6785 269.717 37.1153H282.235L281.031 45.6013H268.514L261.774 93.5539C260.811 100.558 259.527 106.62 257.922 111.738C256.317 116.946 253.589 121.436 249.738 125.208C245.886 129.069 240.59 131 233.85 131Z" fill="#A4D048"/>
<path d="M307.89 102.444C299.785 102.444 293.567 100.199 289.234 95.7091C284.981 91.2191 282.855 84.5291 282.855 75.639C282.855 67.8265 284.179 60.8671 286.826 54.7608C289.474 48.6545 293.326 43.8951 298.381 40.4828C303.516 36.9806 309.655 35.2295 316.796 35.2295C324.901 35.2295 331.079 37.5194 335.332 42.0991C339.665 46.6789 341.831 53.3689 341.831 62.1692C341.831 70.0715 340.507 77.0758 337.859 83.1821C335.292 89.1986 331.44 93.9131 326.305 97.3254C321.25 100.738 315.111 102.444 307.89 102.444ZM308.852 94.9009C314.229 94.9009 318.16 91.0395 320.648 83.3168C323.215 75.5043 324.499 66.7489 324.499 57.0506C324.499 52.1117 323.777 48.5198 322.333 46.2748C320.969 43.94 318.802 42.7726 315.833 42.7726C312.223 42.7726 309.214 44.7482 306.806 48.6994C304.479 52.5607 302.794 57.4098 301.751 63.2468C300.708 68.9939 300.187 74.8757 300.187 80.8922C300.187 85.7414 300.869 89.2884 302.233 91.5334C303.677 93.7784 305.884 94.9009 308.852 94.9009Z" fill="#A4D048"/>
<path d="M361.174 102.309C357.724 102.309 355.197 101.366 353.592 99.4806C351.987 97.5948 351.185 94.6315 351.185 90.5905C351.185 87.6272 352.789 75.5492 355.999 54.3567C356.32 52.0219 357.082 46.6789 358.286 38.3276C359.489 29.9763 360.091 24.9925 360.091 23.3761C360.091 19.5147 358.486 17.5841 355.277 17.5841C354.715 17.5841 353.873 17.6739 352.749 17.8534L352.388 12.6002C355.036 11.4328 358.647 10.4001 363.221 9.50216C367.794 8.51437 372.007 7.93068 375.859 7.75108L379.108 9.63685L374.655 41.5603C370.322 72.1818 368.155 87.9864 368.155 88.9741C368.155 91.2191 369.078 92.3416 370.924 92.3416C372.368 92.3416 374.214 91.6232 376.46 90.1864L378.025 95.0356C376.34 96.9213 373.772 98.6275 370.322 100.154C366.872 101.591 363.822 102.309 361.174 102.309Z" fill="#A4D048"/>
<path d="M396.803 102.309C393.192 102.309 390.625 101.321 389.1 99.3459C387.575 97.3703 386.813 94.4519 386.813 90.5905C386.813 87.9863 387.816 79.9494 389.822 66.4795C391.186 57.1404 391.868 51.9321 391.868 50.8545C391.868 46.9932 390.264 45.0625 387.054 45.0625C386.653 45.0625 385.81 45.1523 384.526 45.3319L384.165 40.0787C387.054 38.7317 390.785 37.6092 395.359 36.7112C400.013 35.8132 404.105 35.3193 407.636 35.2295L410.885 37.1153L409.321 48.43C405.63 73.9328 403.784 87.4925 403.784 89.1088C403.784 91.264 404.707 92.3416 406.552 92.3416C407.916 92.3416 409.762 91.6232 412.089 90.1864L413.654 95.0356C412.049 96.8315 409.521 98.4928 406.071 100.019C402.621 101.546 399.531 102.309 396.803 102.309ZM403.664 26.07C401.337 26.07 399.451 25.3966 398.007 24.0496C396.562 22.7026 395.84 20.7719 395.84 18.2575C395.84 14.935 396.723 12.2859 398.488 10.3103C400.334 8.24497 402.781 7.21228 405.83 7.21228C408.237 7.21228 410.123 7.93068 411.487 9.36746C412.931 10.7144 413.654 12.6002 413.654 15.0248C413.654 18.3473 412.731 21.0413 410.885 23.1067C409.12 25.0823 406.713 26.07 403.664 26.07Z" fill="#A4D048"/>
<path d="M445.058 102.444C436.954 102.444 430.735 100.199 426.402 95.7091C422.15 91.2191 420.023 84.5291 420.023 75.639C420.023 67.8265 421.347 60.8671 423.995 54.7608C426.643 48.6545 430.495 43.8951 435.55 40.4828C440.685 36.9806 446.824 35.2295 453.965 35.2295C462.069 35.2295 468.248 37.5194 472.501 42.0991C476.833 46.6789 479 53.3689 479 62.1692C479 70.0715 477.676 77.0758 475.028 83.1821C472.46 89.1986 468.609 93.9131 463.473 97.3254C458.418 100.738 452.28 102.444 445.058 102.444ZM446.021 94.9009C451.397 94.9009 455.329 91.0395 457.817 83.3168C460.384 75.5043 461.668 66.7489 461.668 57.0506C461.668 52.1117 460.946 48.5198 459.502 46.2748C458.138 43.94 455.971 42.7726 453.002 42.7726C449.391 42.7726 446.382 44.7482 443.975 48.6994C441.648 52.5607 439.963 57.4098 438.92 63.2468C437.877 68.9939 437.355 74.8757 437.355 80.8922C437.355 85.7414 438.037 89.2884 439.401 91.5334C440.846 93.7784 443.052 94.9009 446.021 94.9009Z" fill="#A4D048"/>
</g>
<defs>
<filter id="filter0_d_16_4" x="0" y="0" width="489" height="145" filterUnits="userSpaceOnUse" color-interpolation-filters="sRGB">
<feFlood flood-opacity="0" result="BackgroundImageFix"/>
<feColorMatrix in="SourceAlpha" type="matrix" values="0 0 0 0 0 0 0 0 0 0 0 0 0 0 0 0 0 0 127 0" result="hardAlpha"/>
<feOffset dy="4"/>
<feGaussianBlur stdDeviation="5"/>
<feComposite in2="hardAlpha" operator="out"/>
<feColorMatrix type="matrix" values="0 0 0 0 0 0 0 0 0 0 0 0 0 0 0 0 0 0 1 0"/>
<feBlend mode="normal" in2="BackgroundImageFix" result="effect1_dropShadow_16_4"/>
<feBlend mode="normal" in="SourceGraphic" in2="effect1_dropShadow_16_4" result="shape"/>
</filter>
</defs>
</svg>
